HIERARCHY
ROOT Hips
{
	OFFSET -3.958830 18.904000 13.208200
	CHANNELS 6 Xposition Yposition Zposition Zrotation Yrotation Xrotation 
	JOINT LHipJoint
	{
		OFFSET 0.000000 0.000000 0.000000
		CHANNELS 3 Zrotation Yrotation Xrotation
		JOINT LeftUpLeg
		{
			OFFSET 1.800000 -1.400000 0.085000
			CHANNELS 3 Zrotation Yrotation Xrotation
			JOINT LeftLeg
			{
				OFFSET 2.215000 -6.000000 0.000000
				CHANNELS 3 Zrotation Yrotation Xrotation
				JOINT LeftFoot
				{
					OFFSET 2.500000 -6.900000 0.000000
					CHANNELS 3 Zrotation Yrotation Xrotation
					JOINT LeftToeBase
					{
						OFFSET 0.200000 -0.500000 1.950000
						CHANNELS 3 Zrotation Yrotation Xrotation
						End Site
						{
							OFFSET 0.000000 0.000000 0.000000
						}
					}
				}
			}
		}
	}
	JOINT RHipJoint
	{
		OFFSET 0.000000 0.000000 0.000000
		CHANNELS 3 Zrotation Yrotation Xrotation
		JOINT RightUpLeg
		{
			OFFSET -1.800000 -1.400000 0.085000
			CHANNELS 3 Zrotation Yrotation Xrotation
			JOINT RightLeg
			{
				OFFSET -2.215000 -6.000000 0.000000
				CHANNELS 3 Zrotation Yrotation Xrotation
				JOINT RightFoot
				{
					OFFSET -2.500000 -6.900000 0.000000
					CHANNELS 3 Zrotation Yrotation Xrotation
					JOINT RightToeBase
					{
						OFFSET -0.200000 -0.500000 1.950000
						CHANNELS 3 Zrotation Yrotation Xrotation
						End Site
						{
							OFFSET 0.000000 0.000000 0.000000
						}
					}
				}
			}
		}
	}
	JOINT LowerBack
	{
		OFFSET 0.000000 0.000000 0.000000
		CHANNELS 3 Zrotation Yrotation Xrotation
		JOINT Spine
		{
			OFFSET -0.087000 1.940000 -0.288900
			CHANNELS 3 Zrotation Yrotation Xrotation
			JOINT Spine1
			{
				OFFSET 0.000000 1.950000 0.060000
				CHANNELS 3 Zrotation Yrotation Xrotation
				JOINT Neck
				{
					OFFSET 0.000000 0.000000 0.000000
					CHANNELS 3 Zrotation Yrotation Xrotation
					JOINT Neck1
					{
						OFFSET 0.000000 1.600000 0.340000
						CHANNELS 3 Zrotation Yrotation Xrotation
						JOINT Head
						{
							OFFSET 0.000000 1.667000 -0.240000
							CHANNELS 3 Zrotation Yrotation Xrotation
							End Site
							{
								OFFSET 0.000000 0.000000 0.000000
							}
						}
					}
				}
				JOINT LeftShoulder
				{
					OFFSET 0.000000 0.000000 0.000000
					CHANNELS 3 Zrotation Yrotation Xrotation
					JOINT LeftArm
					{
						OFFSET 2.700000 1.550000 -0.730000
						CHANNELS 3 Zrotation Yrotation Xrotation
						JOINT LeftForeArm
						{
							OFFSET 5.450000 0.000000 0.000000
							CHANNELS 3 Zrotation Yrotation Xrotation
							JOINT LeftHand
							{
								OFFSET 3.450000 0.000000 0.000000
								CHANNELS 3 Zrotation Yrotation Xrotation
								JOINT LeftHandIndex1
								{
									OFFSET 0.750000 0.000000 0.000000
									CHANNELS 3 Zrotation Yrotation Xrotation
									End Site
									{
										OFFSET 0.000000 0.000000 0.000000
									}
								}
							}
						}
					}
				}
				JOINT RightShoulder
				{
					OFFSET 0.000000 0.000000 0.000000
					CHANNELS 3 Zrotation Yrotation Xrotation
					JOINT RightArm
					{
						OFFSET -2.700000 1.550000 -0.730000
						CHANNELS 3 Zrotation Yrotation Xrotation
						JOINT RightForeArm
						{
							OFFSET -5.450000 0.000000 0.000000
							CHANNELS 3 Zrotation Yrotation Xrotation
							JOINT RightHand
							{
								OFFSET -3.450000 0.000000 0.000000
								CHANNELS 3 Zrotation Yrotation Xrotation
								JOINT RightHandIndex1
								{
									OFFSET -0.750000 0.000000 0.000000
									CHANNELS 3 Zrotation Yrotation Xrotation
									End Site
									{
										OFFSET 0.000000 0.000000 0.000000
									}
								}
							}
						}
					}
				}
			}
		}
	}
}
MOTION
Frames: 4
Frame Time: 0.016667
-0.235560 16.203180 0.304100 -4.615487 -40.736165 7.491688 -15.064118 13.032782 2.663768 7.356567 -0.836085 -3.855493 -4.716242 4.382261 4.229238 -0.124852 4.202231 3.454314 0.246650 0.012370 0.211020 18.388862 -10.863047 2.893371 -6.285020 1.834800 -21.440378 7.944563 -3.818162 7.285217 0.165290 -2.944203 3.451755 0.128110 0.559560 0.329120 -3.873531 -0.758166 -6.632779 8.783950 -3.279599 1.592347 -2.420152 -4.149535 6.175396 3.121856 1.596246 -5.686026 2.716835 2.597098 24.972597 -5.305570 6.706650 3.455040 -24.497544 2.154680 2.411526 -55.475504 -15.388580 6.044929 20.774301 -85.135350 -18.518828 -3.764522 3.229827 -0.074670 0.540190 -0.290970 0.277690 19.042456 -3.922096 1.414879 60.033970 12.654388 2.280499 -102.963393 60.562408 -72.502710 1.715408 -0.306969 -0.159210 0.031490 -0.128760 -0.022290 
-0.233890 16.204930 0.302870 -4.612711 -40.818373 7.329114 -15.063179 13.032135 2.667085 7.362802 -0.814037 -3.688030 -4.713209 4.391315 4.230120 -0.127132 4.215919 3.448717 0.253360 0.020870 0.214490 18.388612 -10.873929 2.891446 -6.291292 1.807438 -21.304628 7.913136 -3.818788 7.269843 0.161128 -2.950167 3.449821 0.134430 0.558620 0.328960 -3.875009 -0.741908 -6.636493 8.737465 -3.245750 1.666074 -2.397465 -4.105328 6.497291 3.137175 1.631051 -5.808209 2.769387 2.581100 25.213709 -5.264970 6.672050 3.301500 -24.050843 1.888444 2.493506 -55.672062 -15.954470 5.885359 29.920233 -85.665726 -26.526222 -3.708487 3.030175 -0.071680 0.538980 -0.288440 0.278590 18.583980 -3.656499 1.523164 59.969070 13.197160 2.580917 -103.619000 59.567308 -72.719589 1.747508 -0.459929 -0.159250 0.036390 -0.129050 -0.023180 
-0.229920 16.207970 0.301030 -4.639608 -40.928830 7.061029 -15.058693 13.023721 2.668581 7.386900 -0.780240 -3.405768 -4.711407 4.408318 4.257351 -0.133566 4.243635 3.438171 0.265620 0.036660 0.219500 18.391858 -10.897893 2.887882 -6.305497 1.758618 -21.071341 7.899691 -3.835463 7.277580 0.152586 -2.971994 3.438421 0.148370 0.560160 0.333170 -3.890218 -0.692375 -6.635048 8.731140 -3.184634 1.779866 -2.421546 -4.030500 7.072153 3.204075 1.697764 -5.992424 2.883360 2.528578 25.567145 -5.244650 6.613710 3.085240 -23.254875 1.471508 2.529456 -55.940136 -17.153982 5.523478 49.433002 -86.345640 -43.196859 -3.551915 2.294115 -0.069210 0.540850 -0.284990 0.281510 17.711432 -3.269351 1.713935 59.811862 14.194532 3.159315 -104.862446 57.775844 -73.092393 1.794353 -0.715104 -0.159420 0.042890 -0.129360 -0.023380 
-0.224450 16.212590 0.298060 -4.698090 -41.014165 6.665930 -15.048572 12.998744 2.663535 7.463993 -0.735978 -2.991346 -4.723984 4.438426 4.306905 -0.141766 4.279219 3.421483 0.285860 0.063680 0.228100 18.401453 -10.939004 2.880543 -6.310608 1.677619 -20.669556 7.862402 -3.851838 7.237180 0.137114 -3.006695 3.420993 0.169750 0.556960 0.337020 -3.932621 -0.584026 -6.620144 8.755520 -3.059071 1.897987 -2.386362 -3.883958 7.889388 3.305471 1.763959 -6.170043 3.007817 2.481719 26.064260 -5.193770 6.542010 2.731300 -22.024257 1.103162 2.378222 -56.454380 -19.195562 7.568652 75.940622 -83.978082 -62.921502 -3.292505 0.183475 -0.066730 0.540070 -0.279020 0.284470 16.441464 -2.899939 1.958136 59.390672 15.511513 3.839325 -106.413177 55.443939 -73.310274 1.833605 -0.995615 -0.156900 0.049630 -0.131400 -0.024170 
